<?xml version="1.0" encoding="iso-8859-1"?>
<!-- Uploaded to: SVG Repo, www.svgrepo.com, Generator: SVG Repo Mixer Tools -->
<svg height="800px" width="800px" version="1.1" id="Layer_1" xmlns="http://www.w3.org/2000/svg" xmlns:xlink="http://www.w3.org/1999/xlink" 
	 viewBox="0 0 512 512" xml:space="preserve">
<path style="fill:#FF9737;" d="M344.011,328.723h-8.444h-16.709h-11.062c-10.579,17.561-29.801,29.324-51.797,29.324
	s-41.216-11.763-51.797-29.324h-10.45h-16.709h-11.997c-28.694,0-51.955,23.262-51.955,51.958v117.904
	c0,7.408,6.005,13.415,13.415,13.415h256.046c7.409,0,13.415-6.006,13.415-13.415v-69.547v-29.065v-19.291
	C395.967,351.985,372.705,328.723,344.011,328.723z"/>
<g>
	<path style="opacity:0.1;fill:#231F20;enable-background:new    ;" d="M185.428,512v-87.934c0-4.63-3.754-8.384-8.384-8.384
		s-8.384,3.754-8.384,8.384V512H185.428z"/>
	<path style="opacity:0.1;fill:#231F20;enable-background:new    ;" d="M343.952,512v-87.934c0-4.63-3.754-8.384-8.384-8.384
		c-4.63,0-8.384,3.754-8.384,8.384V512H343.952z"/>
</g>
<g>
	<path style="fill:#578CAD;" d="M132.455,212.363c0-20.166,4.819-39.196,13.321-56.051c-28.578-28.621-64.724-38.739-82.077-22.456
		c-17.941,16.837-8.991,55.525,19.996,86.412c17.345,18.485,37.93,29.977,55.513,32.626
		C134.84,240.184,132.455,226.553,132.455,212.363z"/>
	<path style="fill:#578CAD;" d="M448.301,133.856c-17.352-16.282-53.497-6.164-82.074,22.456
		c8.499,16.855,13.316,35.885,13.316,56.051c0,14.191-2.384,27.822-6.751,40.531c17.583-2.648,38.169-14.14,55.515-32.626
		C457.291,189.381,466.243,150.692,448.301,133.856z"/>
	<path style="fill:#578CAD;" d="M255.264,96.083c-4.63,0-8.384-3.754-8.384-8.384V22.557c0-4.63,3.754-8.384,8.384-8.384
		s8.384,3.754,8.384,8.384v65.141C263.648,92.329,259.894,96.083,255.264,96.083z"/>
</g>
<circle style="fill:#FF9737;" cx="255.262" cy="22.559" r="22.559"/>
<path id="SVGCleanerId_0" style="fill:#90C8EC;" d="M380.662,212.363c0-68.851-55.812-124.664-124.662-124.664
	s-124.664,55.814-124.664,124.664c0,48.949,28.216,91.299,69.266,111.698c9.345,21.322,30.626,36.222,55.398,36.222
	s46.05-14.901,55.398-36.222C352.448,303.663,380.662,261.311,380.662,212.363z"/>
<g>
	<path id="SVGCleanerId_0_1_" style="fill:#90C8EC;" d="M380.662,212.363c0-68.851-55.812-124.664-124.662-124.664
		s-124.664,55.814-124.664,124.664c0,48.949,28.216,91.299,69.266,111.698c9.345,21.322,30.626,36.222,55.398,36.222
		s46.05-14.901,55.398-36.222C352.448,303.663,380.662,261.311,380.662,212.363z"/>
</g>
<g>
	<circle style="fill:#FFD960;" cx="204.095" cy="213.855" r="28.761"/>
	<circle style="fill:#FFD960;" cx="304.964" cy="213.855" r="28.76"/>
</g>
<g style="opacity:0.1;">
	<path style="fill:#231F20;" d="M129.012,498.585V380.681c0-28.694,23.26-51.958,51.955-51.958h-3.924h-11.997
		c-28.694,0-51.955,23.262-51.955,51.958v117.904c0,7.408,6.005,13.415,13.415,13.415h15.921
		C135.019,512,129.012,505.994,129.012,498.585z"/>
</g>
<g>
	<path style="opacity:0.1;fill:#231F20;enable-background:new    ;" d="M99.616,215.976c-28.987-29.479-37.937-66.405-19.996-82.474
		c3.881-3.476,8.706-5.681,14.173-6.721c-12.06-1.955-22.758,0.192-30.094,7.076c-17.941,16.837-8.991,55.525,19.996,86.412
		c17.345,18.485,37.93,29.977,55.513,32.626c-1.283-3.737-2.374-7.563-3.306-11.45C123.581,236.102,110.911,227.466,99.616,215.976z
		"/>
	<path style="opacity:0.1;fill:#231F20;enable-background:new    ;" d="M248.628,22.558c0-9.652,6.072-17.864,14.596-21.085
		C260.745,0.535,258.071,0,255.264,0c-12.459,0-22.557,10.099-22.557,22.558c0,12.458,10.098,22.557,22.557,22.557
		c2.807,0,5.481-0.535,7.961-1.472C254.701,40.421,248.628,32.209,248.628,22.558z"/>
	<path style="opacity:0.1;fill:#231F20;enable-background:new    ;" d="M271.921,352.457c-24.771,0-46.052-14.901-55.398-36.222
		c-41.051-20.398-69.266-62.749-69.266-111.698c0-45.969,24.886-86.12,61.914-107.735c-45.642,18.515-77.835,63.274-77.835,115.56
		c0,48.949,28.216,91.299,69.266,111.698c9.345,21.322,30.626,36.222,55.398,36.222c12.74,0,24.549-3.948,34.293-10.677
		C284.498,351.453,278.329,352.457,271.921,352.457z"/>
	<path style="opacity:0.1;fill:#231F20;enable-background:new    ;" d="M191.251,213.858c0-13.122,8.789-24.181,20.799-27.636
		c-2.53-0.727-5.197-1.125-7.961-1.125c-15.884,0-28.76,12.876-28.76,28.76s12.876,28.76,28.76,28.76
		c2.763,0,5.431-0.397,7.961-1.125C200.041,238.041,191.251,226.98,191.251,213.858z"/>
	<path style="opacity:0.1;fill:#231F20;enable-background:new    ;" d="M292.129,213.858c0-13.122,8.789-24.181,20.797-27.636
		c-2.529-0.728-5.196-1.125-7.959-1.125c-15.884,0-28.76,12.876-28.76,28.76s12.876,28.76,28.76,28.76
		c2.763,0,5.431-0.397,7.959-1.125C300.918,238.041,292.129,226.98,292.129,213.858z"/>
</g>
<path style="fill:#3A5D74;" d="M256,315.726c-17.92,0-33.276-12.79-36.511-30.411c-0.836-4.554,2.178-8.924,6.732-9.76
	c4.554-0.841,8.923,2.178,9.76,6.732c1.774,9.66,10.192,16.67,20.017,16.67c9.825,0,18.243-7.01,20.017-16.67
	c0.837-4.554,5.205-7.57,9.762-6.732c4.554,0.836,7.569,5.206,6.732,9.76C289.275,302.936,273.92,315.726,256,315.726z"/>
</svg>